<svg width="28" height="28" viewBox="0 0 28 28" fill="none" xmlns="http://www.w3.org/2000/svg">
<mask id="mask0_1089_12494" style="mask-type:alpha" maskUnits="userSpaceOnUse" x="5" y="5" width="18" height="18">
<path d="M13.9997 15.3501L7.47277 21.877C7.30129 22.0484 7.0818 22.1393 6.81429 22.1496C6.54593 22.1608 6.31529 22.0699 6.12238 21.877C5.92946 21.6841 5.83301 21.459 5.83301 21.2018C5.83301 20.9446 5.92946 20.7195 6.12238 20.5266L12.6493 13.9997L6.12238 7.47277C5.9509 7.30129 5.86002 7.08137 5.84973 6.81301C5.83858 6.5455 5.92946 6.31529 6.12238 6.12238C6.31529 5.92946 6.54036 5.83301 6.79757 5.83301C7.05479 5.83301 7.27986 5.92946 7.47277 6.12238L13.9997 12.6493L20.5266 6.12238C20.6981 5.9509 20.918 5.85959 21.1863 5.84844C21.4538 5.83815 21.6841 5.92946 21.877 6.12238C22.0699 6.31529 22.1663 6.54036 22.1663 6.79757C22.1663 7.05479 22.0699 7.27986 21.877 7.47277L15.3501 13.9997L21.877 20.5266C22.0484 20.6981 22.1393 20.9175 22.1496 21.1851C22.1608 21.4534 22.0699 21.6841 21.877 21.877C21.6841 22.0699 21.459 22.1663 21.2018 22.1663C20.9446 22.1663 20.7195 22.0699 20.5266 21.877L13.9997 15.3501Z" fill="#f2f2f2"/>
</mask>
<g mask="url(#mask0_1089_12494)">
<rect width="28" height="28" fill="#f2f2f2"/>
</g>
</svg>
